<?xml version="1.0" encoding="UTF-8"?>
<!DOCTYPE svg PUBLIC "-//W3C//DTD SVG 1.1//EN" "http://www.w3.org/Graphics/SVG/1.1/DTD/svg11.dtd">
<!-- Creator: CorelDRAW X7 -->
<svg xmlns="http://www.w3.org/2000/svg" xml:space="preserve" width="42px" height="42px" version="1.1" style="shape-rendering:geometricPrecision; text-rendering:geometricPrecision; image-rendering:optimizeQuality; fill-rule:evenodd; clip-rule:evenodd"
viewBox="0 0 142688 142688"
 xmlns:xlink="http://www.w3.org/1999/xlink">
 <defs>
  <style type="text/css">
   <![CDATA[
    .fil0 {fill:#00AD4A}
    .fil2 {fill:#E2FC3A}
    .fil1 {fill:#E2FC3A;fill-rule:nonzero}
   ]]>
  </style>
 </defs>
 <g id="Layer_x0020_1">
  <metadata id="CorelCorpID_0Corel-Layer"/>
  <circle class="fil0" cx="71344" cy="71345" r="66987"/>
  <path class="fil1" d="M71344 0c19672,0 37511,7980 50429,20898l4 13 13 4c12918,12918 20898,30753 20898,50429 0,19672 -7980,37511 -20898,50429l-13 4 -4 13c-12918,12918 -30757,20898 -50429,20898 -19676,0 -37511,-7980 -50429,-20898l-4 -13 -13 -4c-12918,-12918 -20898,-30757 -20898,-50429 0,-19676 7980,-37511 20898,-50429l13 -4 4 -13c12918,-12918 30753,-20898 50429,-20898zm44282 27045c-11313,-11317 -26978,-18323 -44282,-18323 -17308,0 -32969,7006 -44282,18323l-17 17c-11317,11313 -18323,26974 -18323,44282 0,17304 7006,32969 18323,44282l17 17c11313,11317 26974,18323 44282,18323 17304,0 32969,-7006 44282,-18323l17 -17c11317,-11313 18323,-26978 18323,-44282 0,-17308 -7006,-32969 -18323,-44282l-17 -17z"/>
  <g id="_1297744330736">
   <path class="fil2" d="M106622 87295c-396,-1264 -1740,-1971 -2924,-1575l-76 0 -28819 9471c-1892,-3000 -5368,-4736 -8920,-4500l-13103 -39790c-1264,-3868 -4740,-6632 -8844,-7024l-5367 -476c-1344,-156 -2528,868 -2604,2132 -80,1264 868,2448 2132,2604l5367 476c2208,236 4024,1656 4736,3788l13104 39870c-4576,2840 -5920,8840 -3076,13420 2840,4580 8839,5924 13419,3080 3080,-1896 4816,-5368 4500,-8920l28815 -9476c1344,-471 2052,-1816 1660,-3080z"/>
   <path class="fil2" d="M104646 76244l-9236 -28183c-472,-1344 -1896,-2132 -3316,-1660l-29210 9552c-1340,476 -2132,1896 -1656,3316l9235 28187c472,1339 1896,2132 3316,1655l29211 -9551c1340,-472 2132,-1896 1656,-3316z"/>
  </g>
 </g>
</svg>
