<?xml version="1.0" encoding="UTF-8"?>
<!DOCTYPE svg PUBLIC "-//W3C//DTD SVG 1.1//EN" "http://www.w3.org/Graphics/SVG/1.1/DTD/svg11.dtd">
<!-- Creator: CorelDRAW X7 -->
<svg xmlns="http://www.w3.org/2000/svg" xml:space="preserve" width="42px" height="42px" version="1.1" style="shape-rendering:geometricPrecision; text-rendering:geometricPrecision; image-rendering:optimizeQuality; fill-rule:evenodd; clip-rule:evenodd"
viewBox="0 0 149571 149571"
 xmlns:xlink="http://www.w3.org/1999/xlink">
 <defs>
  <style type="text/css">
   <![CDATA[
    .fil0 {fill:#00AD4A}
    .fil2 {fill:#E2FC3A}
    .fil1 {fill:#E2FC3A;fill-rule:nonzero}
   ]]>
  </style>
 </defs>
 <g id="Layer_x0020_1">
  <metadata id="CorelCorpID_0Corel-Layer"/>
  <circle class="fil0" cx="74785" cy="74787" r="70219"/>
  <path class="fil1" d="M74785 -4c20623,0 39320,8370 52863,21910l5 12 12 4c13540,13544 21910,32236 21910,52863 0,20623 -8370,39320 -21910,52863l-12 5 -5 12c-13543,13540 -32240,21910 -52863,21910 -20627,0 -39319,-8370 -52863,-21910l-4 -12 -12 -5c-13540,-13543 -21910,-32240 -21910,-52863 0,-20627 8370,-39319 21910,-52863l12 -4 4 -12c13544,-13540 32236,-21910 52863,-21910zm46420 28354c-11862,-11862 -28283,-19206 -46420,-19206 -18141,0 -34557,7344 -46419,19206l-16 16c-11862,11862 -19206,28278 -19206,46419 0,18142 7344,34558 19206,46420l16 16c11862,11862 28278,19206 46419,19206 18142,0 34558,-7344 46420,-19206l16 -16c11862,-11862 19206,-28283 19206,-46420 0,-18141 -7344,-34557 -19206,-46419l-16 -16z"/>
  <path class="fil2" d="M112368 71307l-11790 -11790 0 -13615c0,-2461 -1998,-4455 -4459,-4455 -2460,0 -4458,1994 -4458,4455l0 4702 -8774 -8774c-4337,-4336 -11883,-4328 -16211,4l-29473 29469c-1737,1741 -1737,4563 0,6305 1742,1741 4568,1741 6310,0l29468 -29473c955,-950 2650,-950 3609,0l29468 29473c875,870 2015,1304 3155,1304 1140,0 2280,-434 3155,-1304 1737,-1742 1737,-4564 0,-6305l0 4z"/>
  <path class="fil2" d="M76338 56598c-858,-854 -2247,-854 -3105,0l-25918 25914c-408,412 -639,968 -639,1548l0 18903c0,4433 3592,8033 8029,8033l12833 0 0 -19878 14490 0 0 19878 12833 0c4434,0 8030,-3596 8030,-8033l0 -18903c0,-580 -227,-1136 -639,-1548l-25919 -25914 5 0z"/>
 </g>
</svg>
