<?xml version="1.0" encoding="UTF-8"?>
<!DOCTYPE svg PUBLIC "-//W3C//DTD SVG 1.1//EN" "http://www.w3.org/Graphics/SVG/1.1/DTD/svg11.dtd">
<!-- Creator: CorelDRAW X7 -->
<svg xmlns="http://www.w3.org/2000/svg" xml:space="preserve" width="42px" height="42px" version="1.1" style="shape-rendering:geometricPrecision; text-rendering:geometricPrecision; image-rendering:optimizeQuality; fill-rule:evenodd; clip-rule:evenodd"
viewBox="0 0 149571 149571"
 xmlns:xlink="http://www.w3.org/1999/xlink">
 <defs>
  <style type="text/css">
   <![CDATA[
    .fil0 {fill:#00AD4A}
    .fil2 {fill:#E2FC3A}
    .fil1 {fill:#E2FC3A;fill-rule:nonzero}
   ]]>
  </style>
 </defs>
 <g id="Layer_x0020_1">
  <metadata id="CorelCorpID_0Corel-Layer"/>
  <circle class="fil0" cx="74785" cy="74787" r="70219"/>
  <path class="fil1" d="M74785 -4c20623,0 39320,8370 52863,21910l5 12 12 4c13540,13544 21910,32236 21910,52863 0,20623 -8370,39320 -21910,52863l-12 5 -5 12c-13543,13540 -32240,21910 -52863,21910 -20627,0 -39319,-8370 -52863,-21910l-4 -12 -12 -5c-13540,-13543 -21910,-32240 -21910,-52863 0,-20627 8370,-39319 21910,-52863l12 -4 4 -12c13544,-13540 32236,-21910 52863,-21910zm46420 28354c-11862,-11862 -28283,-19206 -46420,-19206 -18141,0 -34557,7344 -46419,19206l-16 16c-11862,11862 -19206,28278 -19206,46419 0,18142 7344,34558 19206,46420l16 16c11862,11862 28278,19206 46419,19206 18142,0 34558,-7344 46420,-19206l16 -16c11862,-11862 19206,-28283 19206,-46420 0,-18141 -7344,-34557 -19206,-46419l-16 -16z"/>
  <g id="_1297738361584">
   <path class="fil2" d="M96069 50470c4517,-2381 8185,-5796 10603,-9881 408,-694 417,-1552 17,-2250 -395,-702 -1140,-1131 -1943,-1131l-59921 0c-803,0 -1548,429 -1943,1131 -400,698 -391,1556 17,2246 2418,4089 6086,7504 10603,9885 3878,2040 8253,3247 12758,3533l0 5750 -10583 0c-3954,0 -7302,2961 -7781,6889l-4522 36926c-274,2229 425,4471 1909,6150 1489,1682 3630,2645 5872,2645l47261 0c2242,0 4382,-963 5871,-2645 1485,-1679 2183,-3921 1910,-6150l-4522 -36926c-479,-3928 -3827,-6889 -7781,-6889l-10583 0 0 -5750c4505,-286 8880,-1493 12758,-3533zm-2936 35588c0,10120 -8232,18351 -18348,18351 -10115,0 -18347,-8231 -18347,-18351 0,-10116 8232,-18347 18347,-18347 10116,0 18348,8231 18348,18347z"/>
   <path class="fil2" d="M74785 72190c-7646,0 -13867,6221 -13867,13868 0,7651 6221,13872 13867,13872 7647,0 13872,-6221 13872,-13872 0,-7647 -6225,-13868 -13872,-13868zm1586 15454l-5392 5388c-438,437 -1010,656 -1582,656 -576,0 -1148,-219 -1585,-656 -875,-875 -875,-2293 0,-3167l5392 -5389c875,-874 2292,-874 3167,0 871,875 871,2293 0,3168z"/>
  </g>
 </g>
</svg>
