<?xml version="1.0" encoding="UTF-8"?>
<!DOCTYPE svg PUBLIC "-//W3C//DTD SVG 1.1//EN" "http://www.w3.org/Graphics/SVG/1.1/DTD/svg11.dtd">
<!-- Creator: CorelDRAW X7 -->
<svg xmlns="http://www.w3.org/2000/svg" xml:space="preserve" width="42px" height="42px" version="1.1" style="shape-rendering:geometricPrecision; text-rendering:geometricPrecision; image-rendering:optimizeQuality; fill-rule:evenodd; clip-rule:evenodd"
viewBox="0 0 149571 149571"
 xmlns:xlink="http://www.w3.org/1999/xlink">
 <defs>
  <style type="text/css">
   <![CDATA[
    .fil0 {fill:#00AD4A}
    .fil2 {fill:#E2FC3A}
    .fil1 {fill:#E2FC3A;fill-rule:nonzero}
   ]]>
  </style>
 </defs>
 <g id="Layer_x0020_1">
  <metadata id="CorelCorpID_0Corel-Layer"/>
  <circle class="fil0" cx="74785" cy="74787" r="70219"/>
  <path class="fil1" d="M74785 -4c20623,0 39320,8370 52863,21910l5 12 12 4c13540,13544 21910,32236 21910,52863 0,20623 -8370,39320 -21910,52863l-12 5 -5 12c-13543,13540 -32240,21910 -52863,21910 -20627,0 -39319,-8370 -52863,-21910l-4 -12 -12 -5c-13540,-13543 -21910,-32240 -21910,-52863 0,-20627 8370,-39319 21910,-52863l12 -4 4 -12c13544,-13540 32236,-21910 52863,-21910zm46420 28354c-11862,-11862 -28283,-19206 -46420,-19206 -18141,0 -34557,7344 -46419,19206l-16 16c-11862,11862 -19206,28278 -19206,46419 0,18142 7344,34558 19206,46420l16 16c11862,11862 28278,19206 46419,19206 18142,0 34558,-7344 46420,-19206l16 -16c11862,-11862 19206,-28283 19206,-46420 0,-18141 -7344,-34557 -19206,-46419l-16 -16z"/>
  <g id="_1297744302320">
   <g>
    <g>
     <path class="fil2" d="M90559 48392l0 -2276c0,-1913 -1548,-3466 -3466,-3466l-5115 0c488,-988 761,-2056 761,-3205 0,-3907 -3175,-7104 -7087,-7104 -3908,0 -7087,3201 -7087,7113 0,1148 273,2212 761,3201l-6852 0c-1914,0 -3466,1548 -3466,3466l0 2271 -8728 0c-3100,0 -5619,2515 -5619,5615l0 57608c0,3108 2515,5619 5619,5619l49006 0c3104,0 5616,-2511 5616,-5619l0 -57608c0,-3100 -2516,-5615 -5616,-5615l-8727 0zm-19130 -8942c0,-2331 1897,-4244 4223,-4244 2326,0 4223,1913 4223,4248 0,1274 -564,2427 -1451,3201l-5540 0c-891,-774 -1455,-1931 -1455,-3205zm27735 69132c0,1607 -1304,2919 -2914,2919l-42933 0c-1611,0 -2915,-1308 -2915,-2919l0 -51538c0,-1611 1304,-2915 2915,-2915l5691 0c0,1582 1283,2869 2869,2869l25813 0c1586,0 2869,-1287 2869,-2869l5695 0c1606,0 2915,1300 2915,2915l0 51538 -5 0z"/>
     <path class="fil2" d="M72472 84266l-3495 -3504c-391,-391 -930,-614 -1485,-614 -559,0 -1089,223 -1489,614l-1081 1086c-820,820 -820,2149 0,2969l6141 6145c400,400 946,623 1514,610 568,-4 1106,-239 1498,-656l10666 -11310c800,-841 762,-2171 -84,-2970l-1114 -1047c-404,-387 -942,-589 -1502,-576 -555,16 -1081,256 -1468,660l-8101 8593z"/>
     <path class="fil2" d="M74781 61267c-11554,0 -20955,9413 -20955,20984 0,11563 9401,20981 20955,20981 11555,0 20960,-9418 20960,-20981 0,-11571 -9401,-20984 -20960,-20984zm0 36236c-8395,0 -15226,-6843 -15226,-15252 0,-8408 6831,-15251 15226,-15251 8396,0 15227,6839 15227,15251 0,8409 -6831,15252 -15227,15252z"/>
    </g>
   </g>
   <g>
   </g>
   <g>
   </g>
   <g>
   </g>
   <g>
   </g>
   <g>
   </g>
   <g>
   </g>
   <g>
   </g>
   <g>
   </g>
   <g>
   </g>
   <g>
   </g>
   <g>
   </g>
   <g>
   </g>
   <g>
   </g>
   <g>
   </g>
   <g>
   </g>
  </g>
 </g>
</svg>
