<?xml version="1.0" encoding="UTF-8"?>
<!DOCTYPE svg PUBLIC "-//W3C//DTD SVG 1.1//EN" "http://www.w3.org/Graphics/SVG/1.1/DTD/svg11.dtd">
<!-- Creator: CorelDRAW X7 -->
<svg xmlns="http://www.w3.org/2000/svg" xml:space="preserve" width="50.8002mm" height="16.6139mm" version="1.1" style="shape-rendering:geometricPrecision; text-rendering:geometricPrecision; image-rendering:optimizeQuality; fill-rule:evenodd; clip-rule:evenodd"
viewBox="0 0 10594 3465"
 xmlns:xlink="http://www.w3.org/1999/xlink">
 <defs>
  <style type="text/css">
   <![CDATA[
    .fil1 {fill:#FFCE00}
    .fil0 {fill:#00AD4A;fill-rule:nonzero}
    .fil2 {fill:url(#id0)}
    .fil4 {fill:url(#id1)}
    .fil3 {fill:url(#id2)}
   ]]>
  </style>
  <linearGradient id="id0" gradientUnits="userSpaceOnUse" x1="4828.5" y1="246.685" x2="5861.37" y2="620.769">
   <stop offset="0" style="stop-opacity:1; stop-color:#00AD4A"/>
   <stop offset="1" style="stop-opacity:1; stop-color:#9CCE63"/>
  </linearGradient>
  <linearGradient id="id1" gradientUnits="userSpaceOnUse" x1="6203.27" y1="638.308" x2="5659.06" y2="1608.87">
   <stop offset="0" style="stop-opacity:1; stop-color:#398C63"/>
   <stop offset="1" style="stop-opacity:1; stop-color:#00A552"/>
  </linearGradient>
  <linearGradient id="id2" gradientUnits="userSpaceOnUse" x1="5120.69" y1="1325.64" x2="4366.22" y2="924.158">
   <stop offset="0" style="stop-opacity:1; stop-color:#29B54A"/>
   <stop offset="1" style="stop-opacity:1; stop-color:#E2FC3A"/>
  </linearGradient>
 </defs>
 <g id="Layer_x0020_1">
  <metadata id="CorelCorpID_0Corel-Layer"/>
  <path class="fil0" d="M726 2835c109,25 185,56 229,92 63,50 94,117 94,198 0,85 -34,156 -103,212 -85,68 -207,102 -368,102l-578 0 0 -29c53,0 88,-5 107,-15 19,-10 32,-23 39,-38 8,-16 12,-55 12,-117l0 -740c0,-62 -4,-101 -12,-117 -7,-16 -20,-29 -39,-39 -19,-9 -55,-14 -107,-14l0 -29 545 0c131,0 223,12 277,35 55,23 97,58 129,104 31,46 47,95 47,147 0,55 -20,103 -60,146 -41,43 -111,77 -212,102zm-305 -23c80,0 139,-8 177,-26 38,-18 67,-43 87,-76 21,-32 31,-74 31,-124 0,-51 -10,-92 -30,-124 -20,-32 -49,-56 -86,-73 -37,-17 -97,-25 -179,-25l0 448zm0 66l0 364 0 42c0,30 7,53 22,68 15,16 38,23 67,23 44,0 85,-10 122,-29 37,-20 65,-49 85,-86 20,-38 30,-80 30,-126 0,-53 -11,-100 -33,-142 -23,-43 -55,-72 -99,-89 -43,-18 -108,-26 -194,-25z"/>
  <path id="1" class="fil0" d="M1736 3410l0 29 -592 0 0 -29 37 0c33,0 59,-6 80,-18 14,-8 25,-21 33,-41 6,-13 9,-49 9,-106l0 -750c0,-59 -3,-95 -9,-110 -6,-15 -19,-27 -37,-38 -19,-12 -44,-17 -76,-17l-37 0 0 -29 592 0 0 29 -38 0c-32,0 -59,6 -79,18 -14,8 -25,21 -34,40 -6,14 -9,49 -9,107l0 750c0,59 3,95 10,110 6,14 18,27 37,38 19,11 44,17 75,17l38 0z"/>
  <path id="2" class="fil0" d="M2596 3051l310 -750 461 0 0 29 -37 0c-33,0 -60,6 -80,18 -14,8 -25,21 -34,40 -6,14 -9,49 -9,107l0 750c0,59 3,95 9,110 7,14 19,27 38,38 19,11 44,17 76,17l37 0 0 29 -592 0 0 -29 36 0c34,0 61,-6 81,-18 14,-8 25,-21 33,-41 6,-13 9,-49 9,-106l0 -842 -437 1036 -20 0 -443 -1029 0 801c0,56 1,91 4,103 8,29 23,51 48,69 24,18 62,27 114,27l0 29 -389 0 0 -29 12 0c25,0 48,-4 70,-13 22,-8 38,-20 50,-35 11,-14 20,-35 26,-62 1,-6 1,-34 1,-86l0 -719c0,-59 -3,-95 -9,-110 -6,-14 -18,-27 -38,-38 -19,-12 -44,-17 -76,-17l-36 0 0 -29 464 0 321 750z"/>
  <path id="3" class="fil0" d="M4110 3115l-398 0 -50 111c-15,37 -23,68 -23,92 0,32 13,56 38,71 15,9 52,16 112,21l0 29 -378 0 0 -29c40,-7 74,-24 100,-51 27,-28 59,-86 97,-174l407 -906 16 0 410 931c39,90 71,146 96,169 19,18 46,28 81,31l0 29 -550 0 0 -29 23 0c44,0 75,-7 93,-19 12,-9 18,-22 18,-39 0,-10 -2,-21 -5,-32 -1,-5 -9,-26 -25,-64l-62 -141zm-27 -62l-170 -388 -173 388 343 0z"/>
  <path id="4" class="fil0" d="M5064 2301l560 705 0 -489c0,-69 -10,-115 -29,-139 -27,-33 -73,-49 -136,-48l0 -29 376 0 0 29c-48,6 -80,14 -97,24 -16,10 -29,26 -38,48 -10,23 -14,61 -14,115l0 948 -29 0 -768 -949 0 726c0,65 15,110 45,133 30,23 65,35 104,35l26 0 0 29 -405 0 0 -29c63,-1 107,-14 132,-39 24,-26 37,-69 37,-129l0 -805 -24 -30c-24,-31 -45,-51 -64,-61 -18,-9 -45,-15 -80,-16l0 -29 404 0z"/>
  <path id="5" class="fil0" d="M6960 2301l0 307 -29 0c-18,-71 -38,-122 -60,-153 -22,-31 -52,-55 -90,-74 -21,-10 -58,-15 -111,-15l-86 0 0 879c0,59 3,95 9,110 7,14 19,27 37,38 19,11 44,17 76,17l38 0 0 29 -593 0 0 -29 38 0c32,0 59,-6 79,-18 14,-8 25,-21 34,-41 6,-13 9,-49 9,-106l0 -879 -82 0c-77,0 -132,16 -166,49 -49,45 -79,109 -92,193l-33 0 0 -307 1022 0z"/>
  <path id="6" class="fil0" d="M7607 3115l-398 0 -50 111c-16,37 -23,68 -23,92 0,32 13,56 38,71 15,9 52,16 112,21l0 29 -378 0 0 -29c40,-7 74,-24 100,-51 26,-28 59,-86 97,-174l407 -906 16 0 410 931c39,90 71,146 96,169 19,18 46,28 81,31l0 29 -550 0 0 -29 22 0c45,0 76,-7 93,-19 13,-9 19,-22 19,-39 0,-10 -2,-21 -5,-32 -1,-5 -10,-26 -25,-64l-62 -141zm-27 -62l-170 -388 -174 388 344 0z"/>
  <path id="7" class="fil0" d="M8591 2921l0 321c0,61 3,100 11,115 7,16 21,29 40,38 19,10 54,15 106,15l0 29 -581 0 0 -29c52,0 88,-5 107,-15 18,-10 32,-22 39,-38 8,-16 11,-54 11,-115l0 -744c0,-61 -3,-100 -11,-116 -7,-16 -21,-28 -40,-38 -19,-9 -54,-14 -106,-14l0 -29 528 0c138,0 238,9 302,28 64,19 116,55 156,106 41,51 61,111 61,180 0,84 -31,154 -91,209 -39,34 -93,61 -162,78l272 385c36,50 62,80 77,93 23,17 50,26 80,28l0 31 -358 0 -367 -518 -74 0zm0 -557l0 496 47 0c78,0 136,-7 175,-21 39,-14 69,-40 91,-77 22,-37 33,-85 33,-144 0,-87 -20,-151 -61,-192 -40,-41 -106,-62 -196,-62l-89 0z"/>
  <path id="8" class="fil0" d="M10086 3115l-398 0 -50 111c-15,37 -23,68 -23,92 0,32 13,56 38,71 16,9 53,16 112,21l0 29 -378 0 0 -29c41,-7 74,-24 100,-51 27,-28 59,-86 98,-174l406 -906 16 0 410 931c39,90 71,146 96,169 19,18 46,28 81,31l0 29 -550 0 0 -29 23 0c44,0 75,-7 93,-19 12,-9 18,-22 18,-39 0,-10 -1,-21 -5,-32 -1,-5 -9,-26 -25,-64l-62 -141zm-27 -62l-170 -388 -173 388 343 0z"/>
  <polygon class="fil1" points="4042,0 6627,14 5322,2242 "/>
  <polygon class="fil2" points="4145,84 6545,81 5342,786 "/>
  <polygon class="fil3" points="4145,84 5342,786 5317,2166 "/>
  <polygon class="fil4" points="5317,2166 6545,81 5342,786 "/>
 </g>
</svg>
