<?xml version="1.0" encoding="UTF-8"?>
<!DOCTYPE svg PUBLIC "-//W3C//DTD SVG 1.1//EN" "http://www.w3.org/Graphics/SVG/1.1/DTD/svg11.dtd">
<!-- Creator: CorelDRAW X7 -->
<svg xmlns="http://www.w3.org/2000/svg" xml:space="preserve" width="42px" height="42px" version="1.1" style="shape-rendering:geometricPrecision; text-rendering:geometricPrecision; image-rendering:optimizeQuality; fill-rule:evenodd; clip-rule:evenodd"
viewBox="0 0 149571 149571"
 xmlns:xlink="http://www.w3.org/1999/xlink">
 <defs>
  <style type="text/css">
   <![CDATA[
    .fil0 {fill:#00AD4A}
    .fil2 {fill:#E2FC3A}
    .fil1 {fill:#E2FC3A;fill-rule:nonzero}
   ]]>
  </style>
 </defs>
 <g id="Layer_x0020_1">
  <metadata id="CorelCorpID_0Corel-Layer"/>
  <circle class="fil0" cx="74785" cy="74787" r="70219"/>
  <path class="fil1" d="M74785 -4c20623,0 39320,8370 52863,21910l5 12 12 4c13540,13544 21910,32236 21910,52863 0,20623 -8370,39320 -21910,52863l-12 5 -5 12c-13543,13540 -32240,21910 -52863,21910 -20627,0 -39319,-8370 -52863,-21910l-4 -12 -12 -5c-13540,-13543 -21910,-32240 -21910,-52863 0,-20627 8370,-39319 21910,-52863l12 -4 4 -12c13544,-13540 32236,-21910 52863,-21910zm46420 28354c-11862,-11862 -28283,-19206 -46420,-19206 -18141,0 -34557,7344 -46419,19206l-16 16c-11862,11862 -19206,28278 -19206,46419 0,18142 7344,34558 19206,46420l16 16c11862,11862 28278,19206 46419,19206 18142,0 34558,-7344 46420,-19206l16 -16c11862,-11862 19206,-28283 19206,-46420 0,-18141 -7344,-34557 -19206,-46419l-16 -16z"/>
  <g id="_1297744322896">
   <path class="fil2" d="M105137 50730c0,-1711 -669,-3327 -1880,-4538l-6053 -6057c-1194,-1194 -2894,-1880 -4580,-1880l-370 0 0 12846 12883 0 0 -371 0 0z"/>
   <path class="fil2" d="M88645 82428c412,-1245 1127,-2402 2057,-3344l14494 -14431 0 -9275 -15041 0c-1182,0 -2070,-955 -2070,-2141l0 -14982 -32109 0c-3542,0 -6419,2881 -6419,6423l0 60219c0,3542 2877,6419 6419,6419l42743 0c3537,0 6477,-2877 6477,-6419l0 -15975 -2351 2293c-955,946 -2070,1636 -3332,2052l-6805 2276 -1035 55c-1716,0 -3335,-833 -4345,-2230 -997,-1392 -1270,-3192 -727,-4820l2044 -6120zm-28388 -5645l21334 0c1186,0 2141,959 2141,2141 0,1182 -955,2141 -2141,2141l-21334 0c-1182,0 -2141,-959 -2141,-2141 0,-1182 959,-2141 2141,-2141zm-2141 -6418c0,-1186 959,-2141 2141,-2141l21334 0c1186,0 2141,955 2141,2141 0,1182 -955,2137 -2141,2137l-21334 4c-1182,0 -2141,-959 -2141,-2141zm0 17123c0,-1186 959,-2141 2141,-2141l21334 0c1186,0 2141,955 2141,2141 0,1182 -955,2141 -2141,2141l-21334 0c-1182,0 -2141,-959 -2141,-2141zm32039 10701c1182,0 2141,959 2141,2140 0,1182 -959,2141 -2141,2141l-12842 0c-1186,0 -2141,-959 -2141,-2141 0,-1181 955,-2140 2141,-2140l12842 0zm-29898 -34247c-1182,0 -2141,-959 -2141,-2141 0,-1182 959,-2141 2141,-2141l29898 0c1182,0 2141,959 2141,2141 0,1182 -959,2141 -2141,2141l-29898 0z"/>
   <path class="fil2" d="M92523 84321l-1863 5586c-278,837 517,1632 1354,1354l5586 -1863 -5077 -5077z"/>
   <path class="fil2" d="M109146 66697l-14095 14095 6078 6082c3188,-3188 9388,-9388 14099,-14099l-6082 -6078z"/>
   <path class="fil2" d="M121360 60556c-753,-757 -1863,-1186 -3037,-1186 -1173,0 -2284,429 -3036,1190l-3113 3109 6078 6082c1703,-1704 2881,-2882 3112,-3113 1670,-1674 1670,-4404 -4,-6082z"/>
   <path class="fil2" d="M121364 66638c0,0 0,0 0,0 5,-4 9,-8 13,-12 -4,4 -8,8 -13,12z"/>
   <path class="fil2" d="M121377 66626c4,-9 13,-17 17,-21 -4,8 -13,12 -17,21z"/>
   <path class="fil2" d="M121394 66605c17,-13 17,-13 0,0l0 0z"/>
  </g>
 </g>
</svg>
