<?xml version="1.0" encoding="UTF-8"?>
<!DOCTYPE svg PUBLIC "-//W3C//DTD SVG 1.1//EN" "http://www.w3.org/Graphics/SVG/1.1/DTD/svg11.dtd">
<!-- Creator: CorelDRAW X7 -->
<svg xmlns="http://www.w3.org/2000/svg" xml:space="preserve" width="42px" height="42px" version="1.1" style="shape-rendering:geometricPrecision; text-rendering:geometricPrecision; image-rendering:optimizeQuality; fill-rule:evenodd; clip-rule:evenodd"
viewBox="0 0 149571 149571"
 xmlns:xlink="http://www.w3.org/1999/xlink">
 <defs>
  <style type="text/css">
   <![CDATA[
    .fil0 {fill:#00AD4A}
    .fil2 {fill:#E2FC3A}
    .fil1 {fill:#E2FC3A;fill-rule:nonzero}
   ]]>
  </style>
 </defs>
 <g id="Layer_x0020_1">
  <metadata id="CorelCorpID_0Corel-Layer"/>
  <circle class="fil0" cx="74785" cy="74787" r="70219"/>
  <path class="fil1" d="M74785 -4c20623,0 39320,8370 52863,21910l5 12 12 4c13540,13544 21910,32236 21910,52863 0,20623 -8370,39320 -21910,52863l-12 5 -5 12c-13543,13540 -32240,21910 -52863,21910 -20627,0 -39319,-8370 -52863,-21910l-4 -12 -12 -5c-13540,-13543 -21910,-32240 -21910,-52863 0,-20627 8370,-39319 21910,-52863l12 -4 4 -12c13544,-13540 32236,-21910 52863,-21910zm46420 28354c-11862,-11862 -28283,-19206 -46420,-19206 -18141,0 -34557,7344 -46419,19206l-16 16c-11862,11862 -19206,28278 -19206,46419 0,18142 7344,34558 19206,46420l16 16c11862,11862 28278,19206 46419,19206 18142,0 34558,-7344 46420,-19206l16 -16c11862,-11862 19206,-28283 19206,-46420 0,-18141 -7344,-34557 -19206,-46419l-16 -16z"/>
  <g id="_1297740684112">
   <path class="fil2" d="M74785 49523c3542,0 6419,-2881 6419,-6423 0,-3537 -2877,-6418 -6419,-6418 -3541,0 -6422,2881 -6422,6418 0,3542 2881,6423 6422,6423z"/>
   <path class="fil2" d="M81440 51454c-13,-4 -1658,-513 -1658,-513 -420,-126 -870,-101 -1274,75l-3723 1624 -3722 -1624c-404,-176 -854,-201 -1274,-71 0,0 -1645,505 -1658,509 -2603,866 -4353,3293 -4353,6036l0 8967c0,1010 820,1834 1834,1834l18343 0c1014,0 1838,-824 1838,-1834l0 -8967c0,-2743 -1750,-5170 -4353,-6036l0 0z"/>
   <path class="fil2" d="M83959 72073l-18347 0c-1014,0 -1834,820 -1834,1833l0 37149c0,1014 820,1834 1834,1834l18347 0c1010,0 1834,-820 1834,-1834l0 -37149c0,-1013 -824,-1833 -1834,-1833l0 0z"/>
   <path class="fil2" d="M100203 62941c3542,0 6423,-2881 6423,-6419 0,-3541 -2881,-6422 -6423,-6422 -3537,0 -6418,2881 -6418,6422 0,3538 2881,6419 6418,6419z"/>
   <path class="fil2" d="M106862 64872c-17,-5 -1662,-509 -1662,-509 -420,-131 -870,-106 -1270,71l-3727 1624 -3722 -1624c-400,-177 -850,-202 -1270,-71 0,0 -1649,504 -1662,509 -2603,866 -4349,3293 -4349,6035l0 8968c0,1014 820,1834 1834,1834l18343 0c1014,0 1834,-820 1834,-1834l0 -8968c0,-2742 -1750,-5169 -4349,-6035l0 0z"/>
   <path class="fil2" d="M109377 85490l-18343 0c-1014,0 -1834,820 -1834,1834l0 23731c0,1014 820,1834 1834,1834l18343 0c1014,0 1834,-820 1834,-1834l0 -23731c0,-1014 -820,-1834 -1834,-1834l0 0z"/>
   <path class="fil2" d="M49363 75467c3542,0 6423,-2881 6423,-6419 0,-3541 -2881,-6423 -6423,-6423 -3537,0 -6418,2882 -6418,6423 0,3538 2881,6419 6418,6419z"/>
   <path class="fil2" d="M56022 77398c-17,-5 -1662,-509 -1662,-509 -420,-131 -870,-106 -1270,71l-3727 1624 -3722 -1624c-400,-177 -854,-202 -1270,-71 0,0 -1649,504 -1662,509 -2603,866 -4349,3293 -4349,6035l0 8968c0,1014 820,1834 1834,1834l18343 0c1014,0 1834,-825 1834,-1834l0 -8968c0,-2742 -1750,-5169 -4349,-6035l0 0z"/>
   <path class="fil2" d="M58537 98016l-18343 0c-1014,0 -1834,820 -1834,1834l0 11205c0,1014 820,1834 1834,1834l18343 0c1014,0 1834,-820 1834,-1834l0 -11205c0,-1014 -820,-1834 -1834,-1834l0 0z"/>
  </g>
 </g>
</svg>
