<?xml version="1.0" encoding="UTF-8"?>
<!DOCTYPE svg PUBLIC "-//W3C//DTD SVG 1.1//EN" "http://www.w3.org/Graphics/SVG/1.1/DTD/svg11.dtd">
<!-- Creator: CorelDRAW X7 -->
<svg xmlns="http://www.w3.org/2000/svg" xml:space="preserve" width="42px" height="42px" version="1.1" style="shape-rendering:geometricPrecision; text-rendering:geometricPrecision; image-rendering:optimizeQuality; fill-rule:evenodd; clip-rule:evenodd"
viewBox="0 0 149571 149571"
 xmlns:xlink="http://www.w3.org/1999/xlink">
 <defs>
  <style type="text/css">
   <![CDATA[
    .fil0 {fill:#00AD4A}
    .fil2 {fill:#E2FC3A}
    .fil1 {fill:#E2FC3A;fill-rule:nonzero}
   ]]>
  </style>
 </defs>
 <g id="Layer_x0020_1">
  <metadata id="CorelCorpID_0Corel-Layer"/>
  <circle class="fil0" cx="74785" cy="74787" r="70219"/>
  <path class="fil1" d="M74785 -4c20623,0 39320,8370 52863,21910l5 12 12 4c13540,13544 21910,32236 21910,52863 0,20623 -8370,39320 -21910,52863l-12 5 -5 12c-13543,13540 -32240,21910 -52863,21910 -20627,0 -39319,-8370 -52863,-21910l-4 -12 -12 -5c-13540,-13543 -21910,-32240 -21910,-52863 0,-20627 8370,-39319 21910,-52863l12 -4 4 -12c13544,-13540 32236,-21910 52863,-21910zm46420 28354c-11862,-11862 -28283,-19206 -46420,-19206 -18141,0 -34557,7344 -46419,19206l-16 16c-11862,11862 -19206,28278 -19206,46419 0,18142 7344,34558 19206,46420l16 16c11862,11862 28278,19206 46419,19206 18142,0 34558,-7344 46420,-19206l16 -16c11862,-11862 19206,-28283 19206,-46420 0,-18141 -7344,-34557 -19206,-46419l-16 -16z"/>
  <g id="_1297744297648">
   <path class="fil2" d="M86554 41826l-5114 0c-968,-2738 -3588,-4707 -6659,-4707 -3066,0 -5686,1969 -6662,4707l-5107 0c-1299,0 -2355,1056 -2355,2355l0 9418c0,1300 1056,2356 2355,2356l23542 0c1300,0 2356,-1056 2356,-2356l0 -9418c0,-1299 -1056,-2355 -2356,-2355z"/>
   <path class="fil2" d="M98327 46537l-4711 0 0 7062c0,3895 -3167,7062 -7062,7062l-23542 0c-3894,0 -7062,-3167 -7062,-7062l0 -7062 -4711 0c-2595,0 -4706,2111 -4706,4707l0 56501c0,2641 2065,4711 4706,4711l47088 0c2642,0 4707,-2070 4707,-4711l0 -56501c0,-2642 -2065,-4707 -4707,-4707zm-24231 41687l-9418 9418c-463,458 -1064,685 -1666,685 -601,0 -1207,-227 -1665,-685l-4711 -4707c-917,-921 -917,-2414 0,-3331 917,-917 2410,-917 3331,0l3045 3041 7748 -7748c921,-921 2415,-921 3331,0 917,917 922,2406 5,3327zm0 -18835l-9418 9418c-463,458 -1064,689 -1666,689 -601,0 -1207,-231 -1665,-689l-4711 -4707c-917,-917 -917,-2410 0,-3331 917,-917 2410,-917 3331,0l3045 3045 7748 -7752c921,-917 2415,-917 3331,0 917,917 922,2406 5,3327zm17165 24232l-9413 0c-1300,0 -2356,-1056 -2356,-2356 0,-1299 1056,-2351 2356,-2351l9413 0c1300,0 2355,1052 2355,2351 0,1300 -1055,2356 -2355,2356zm0 -18836l-9413 0c-1300,0 -2356,-1051 -2356,-2351 0,-1299 1056,-2355 2356,-2355l9413 0c1300,0 2355,1056 2355,2355 0,1300 -1055,2351 -2355,2351z"/>
  </g>
 </g>
</svg>
