<?xml version="1.0" encoding="UTF-8"?>
<!DOCTYPE svg PUBLIC "-//W3C//DTD SVG 1.1//EN" "http://www.w3.org/Graphics/SVG/1.1/DTD/svg11.dtd">
<!-- Creator: CorelDRAW X7 -->
<svg xmlns="http://www.w3.org/2000/svg" xml:space="preserve" width="42px" height="42px" version="1.1" style="shape-rendering:geometricPrecision; text-rendering:geometricPrecision; image-rendering:optimizeQuality; fill-rule:evenodd; clip-rule:evenodd"
viewBox="0 0 149571 149571"
 xmlns:xlink="http://www.w3.org/1999/xlink">
 <defs>
  <style type="text/css">
   <![CDATA[
    .fil0 {fill:#00AD4A}
    .fil2 {fill:#E2FC3A}
    .fil1 {fill:#E2FC3A;fill-rule:nonzero}
   ]]>
  </style>
 </defs>
 <g id="Layer_x0020_1">
  <metadata id="CorelCorpID_0Corel-Layer"/>
  <circle class="fil0" cx="74785" cy="74787" r="70219"/>
  <path class="fil1" d="M74785 -4c20623,0 39320,8370 52863,21910l5 12 12 4c13540,13544 21910,32236 21910,52863 0,20623 -8370,39320 -21910,52863l-12 5 -5 12c-13543,13540 -32240,21910 -52863,21910 -20627,0 -39319,-8370 -52863,-21910l-4 -12 -12 -5c-13540,-13543 -21910,-32240 -21910,-52863 0,-20627 8370,-39319 21910,-52863l12 -4 4 -12c13544,-13540 32236,-21910 52863,-21910zm46420 28354c-11862,-11862 -28283,-19206 -46420,-19206 -18141,0 -34557,7344 -46419,19206l-16 16c-11862,11862 -19206,28278 -19206,46419 0,18142 7344,34558 19206,46420l16 16c11862,11862 28278,19206 46419,19206 18142,0 34558,-7344 46420,-19206l16 -16c11862,-11862 19206,-28283 19206,-46420 0,-18141 -7344,-34557 -19206,-46419l-16 -16z"/>
  <path class="fil2" d="M116204 76098l-6714 -19668c-176,-518 -660,-862 -1207,-862l-17935 0 0 -10411c0,-706 -572,-1278 -1278,-1278l-54315 0c-706,0 -1278,572 -1278,1278l0 48094c0,336 134,660 374,900 240,239 564,374 904,374l4345 0c497,6242 5729,11167 12093,11167 6368,0 11601,-4929 12097,-11171l20551 -4c492,6246 5725,11175 12093,11175 6368,0 11605,-4929 12097,-11175l6961 0c707,0 1279,-572 1279,-1279l0 -16724c0,-143 -25,-282 -67,-416zm-65011 22869c-2978,0 -5405,-2427 -5405,-5409 0,-2983 2427,-5410 5405,-5410 2982,0 5409,2427 5409,5410 0,2982 -2427,5409 -5409,5409zm44741 0c-2982,0 -5405,-2427 -5405,-5409 0,-2983 2423,-5410 5405,-5410 2982,0 5409,2427 5409,5410 0,2982 -2427,5409 -5409,5409zm4989 -20312l-1733 -5262c-173,-526 -661,-879 -1212,-879l-4 0 -8139 9 0 -8859 13250 0 4933 14987 -7095 4z"/>
 </g>
</svg>
